<svg xmlns="http://www.w3.org/2000/svg" xmlns:xlink="http://www.w3.org/1999/xlink" version="1.1" style="enable-background:new 0 0 34 26;" xml:space="preserve" width="100.61904773798659" height="70.90476176419764"><rect id="backgroundrect" width="34px" height="26px" x="0" y="0" fill="none" stroke="none" style="" class=""/>
<style type="text/css">
	.st0{fill:url(#SVGID_1_);}
	.st1{fill:url(#SVGID_2_);}
	.st2{fill:url(#SVGID_3_);}
	.st3{fill:url(#SVGID_4_);}
	.st4{fill:url(#SVGID_5_);}
	.st5{fill:url(#SVGID_6_);}
</style>

<g class="currentLayer" style=""><title>Layer 1</title><g id="svg_1" class="">
	<g id="svg_2">
		<linearGradient id="SVGID_1_" gradientUnits="userSpaceOnUse" x1="43.42959976196289" y1="52.05649948120117" x2="127.19300079345703" y2="52.05649948120117" transform="translate(-0.4761905074119568,0) translate(1.7857143878936768,1.071428656578064) translate(1.547619104385376,-0.5952381491661072) translate(0,0.7142857313156128) translate(-4.285714149475098,-2.857142925262451) translate(-40,-36.42857360839844) translate(0.6619049310684204,0.7293598055839539) scale(0.9938887357711792,1.0088963508605957) translate(-0.6619049310684204,-0.7293598055839539) ">
			<stop offset="0" style="stop-color:#75C16E"/>
			<stop offset="1" style="stop-color:#516D57"/>
		</linearGradient>
		<path class="st0" d="M81.38313882336351,25.816528185119093 c0.298166620731354,-0.6053378105163579 7.7523321390151985,-15.940562343597414 -5.0688325524330144,-17.25212759971619 c-13.119331312179565,-1.3115652561187745 -32.201995038986205,17.655686140060425 -32.201995038986205,17.655686140060425 H1.971428835246293 C14.196260285231801,15.929343946685252 26.32170286164019,9.573296936263501 37.25447895512316,5.941270073165356 c8.646832001209258,-2.8249097824096676 16.597941887378692,-4.035585403442383 23.35638529062271,-4.136475038528442 c9.04438749551773,-0.10088963508605961 16.100997519493102,1.715123796463013 19.877774715423584,4.136475038528442 C90.42752631888125,12.398206718673167 81.68130544409486,25.312080009688795 81.38313882336351,25.816528185119093 z" id="svg_3"/>
		<linearGradient id="SVGID_2_" gradientUnits="userSpaceOnUse" x1="44.138301849365234" y1="68.91059875488281" x2="90.8635025024414" y2="68.91059875488281" transform="translate(-0.4761905074119568,0) translate(1.7857143878936768,1.071428656578064) translate(1.547619104385376,-0.5952381491661072) translate(0,0.7142857313156128) translate(-4.285714149475098,-2.857142925262451) translate(-40,-36.42857360839844) translate(0.6619049310684204,0.7293598055839539) scale(0.9938887357711792,1.0088963508605957) translate(-0.6619049310684204,-0.7293598055839539) ">
			<stop offset="0" style="stop-color:#75C16E"/>
			<stop offset="1" style="stop-color:#516D57"/>
		</linearGradient>
		<path class="st1" d="M49.18114378437731,25.614748914946972 c-2.9816662073135376,3.127578687667847 -4.77066593170166,5.548929929733276 -4.77066593170166,5.548929929733276 l-41.64393802881241,5.4480402946472175 c2.38533296585083,-2.623130512237549 4.77066593170166,-5.0444817543029785 7.255387771129608,-7.264053726196289 h35.28305011987686 l0.8944998621940617,-0.9080067157745362 C46.89519969210359,27.632541616668163 47.88908842787477,26.724534900893623 49.18114378437731,25.614748914946972 z" id="svg_4"/>
		<linearGradient id="SVGID_3_" gradientUnits="userSpaceOnUse" x1="46.144798278808594" y1="76.07420349121094" x2="90.97879791259766" y2="76.07420349121094" transform="translate(-0.4761905074119568,0) translate(1.7857143878936768,1.071428656578064) translate(1.547619104385376,-0.5952381491661072) translate(0,0.7142857313156128) translate(-4.285714149475098,-2.857142925262451) translate(-40,-36.42857360839844) translate(0.6619049310684204,0.7293598055839539) scale(0.9938887357711792,1.0088963508605957) translate(-0.6619049310684204,-0.7293598055839539) ">
			<stop offset="0" style="stop-color:#75C16E"/>
			<stop offset="1" style="stop-color:#516D57"/>
		</linearGradient>
		<path class="st2" d="M46.696421944949364,32.979692276229315 c0,0 0.9938887357711792,-1.2106756210327148 2.584110713005066,-3.026689052581787 c-2.484721839427948,3.430247592926025 -3.8761660695075992,5.952488470077515 -3.8761660695075992,5.952488470077515 L4.65492842182848,46.700682647933434 c2.0871663451194764,-2.9257994174957282 4.174332690238953,-5.649819564819335 6.261499035358429,-8.172060441970824 l34.98488349914551,-4.540033578872681 L46.696421944949364,32.979692276229315 z" id="svg_5"/>
	</g>
	<g id="svg_6">
		<linearGradient id="SVGID_4_" gradientUnits="userSpaceOnUse" x1="57.0906982421875" y1="94.6061019897461" x2="140.85409545898438" y2="94.6061019897461" transform="translate(-0.4761905074119568,0) translate(1.7857143878936768,1.071428656578064) translate(1.547619104385376,-0.5952381491661072) translate(0,0.7142857313156128) translate(-4.285714149475098,-2.857142925262451) translate(-40,-36.42857360839844) translate(0.6619049310684204,0.7293598055839539) scale(0.9938887357711792,1.0088963508605957) translate(-0.6619049310684204,-0.7293598055839539) ">
			<stop offset="0" style="stop-color:#75C16E"/>
			<stop offset="1" style="stop-color:#516D57"/>
		</linearGradient>
		<path class="st3" d="M19.46387058481905,45.28822775672859 c-0.298166620731354,0.6053378105163579 -7.7523321390151985,15.940562343597414 5.0688325524330144,17.25212759971619 c13.119331312179565,1.3115652561187745 32.201995038986205,-17.655686140060425 32.201995038986205,-17.655686140060425 h42.04149352312088 c-12.224831449985505,10.290742778778075 -24.35027402639389,16.64678978919983 -35.28305011987686,20.278816652297976 c-8.646832001209258,2.8249097824096676 -16.597941887378692,4.035585403442383 -23.35638529062271,4.136475038528442 c-9.04438749551773,0.10088963508605961 -16.100997519493102,-1.715123796463013 -19.877774715423584,-4.136475038528442 C10.320094215724197,58.706549223174505 19.165703964087697,45.792675932158886 19.46387058481905,45.28822775672859 z" id="svg_7"/>
		<linearGradient id="SVGID_5_" gradientUnits="userSpaceOnUse" x1="93.42030334472656" y1="77.75189971923828" x2="140.14549255371094" y2="77.75189971923828" transform="translate(-0.4761905074119568,0) translate(1.7857143878936768,1.071428656578064) translate(1.547619104385376,-0.5952381491661072) translate(0,0.7142857313156128) translate(-4.285714149475098,-2.857142925262451) translate(-40,-36.42857360839844) translate(0.6619049310684204,0.7293598055839539) scale(0.9938887357711792,1.0088963508605957) translate(-0.6619049310684204,-0.7293598055839539) ">
			<stop offset="0" style="stop-color:#75C16E"/>
			<stop offset="1" style="stop-color:#516D57"/>
		</linearGradient>
		<path class="st4" d="M51.66586562380526,45.49000702690071 c2.9816662073135376,-3.127578687667847 4.77066593170166,-5.548929929733276 4.77066593170166,-5.548929929733276 l41.64393802881241,-5.4480402946472175 c-2.38533296585083,2.623130512237549 -4.77066593170166,5.0444817543029785 -7.255387771129608,7.264053726196289 H55.64142056688998 l-0.8944998621940617,0.9080067157745362 C53.95180971607897,43.37132469009345 52.95792098030779,44.38022104095405 51.66586562380526,45.49000702690071 z" id="svg_8"/>
		<linearGradient id="SVGID_6_" gradientUnits="userSpaceOnUse" x1="93.30500030517578" y1="70.5884017944336" x2="138.13900756835938" y2="70.5884017944336" transform="translate(-0.4761905074119568,0) translate(1.7857143878936768,1.071428656578064) translate(1.547619104385376,-0.5952381491661072) translate(0,0.7142857313156128) translate(-4.285714149475098,-2.857142925262451) translate(-40,-36.42857360839844) translate(0.6619049310684204,0.7293598055839539) scale(0.9938887357711792,1.0088963508605957) translate(-0.6619049310684204,-0.7293598055839539) ">
			<stop offset="0" style="stop-color:#75C16E"/>
			<stop offset="1" style="stop-color:#516D57"/>
		</linearGradient>
		<path class="st5" d="M54.15058746323321,38.12506366561836 c0,0 -0.9938887357711792,1.2106756210327148 -2.584110713005066,3.026689052581787 c2.484721839427948,-3.430247592926025 3.8761660695075992,-5.952488470077515 3.8761660695075992,-5.952488470077515 l40.65004929304123,-10.795190954208373 c-2.0871663451194764,2.9257994174957282 -4.174332690238953,5.649819564819335 -6.261499035358429,8.172060441970824 l-34.98488349914551,4.540033578872681 L54.15058746323321,38.12506366561836 z" id="svg_9"/>
	</g>
</g></g></svg>