<?xml version="1.0" encoding="UTF-8"?>
<svg xmlns="http://www.w3.org/2000/svg" xmlns:xlink="http://www.w3.org/1999/xlink" width="24px" height="24px" viewBox="0 0 12 12" version="1.1">
<g id="surface1">
<path style=" stroke:none;fill-rule:nonzero;fill:rgb(72.54902%,78.823529%,83.137255%);fill-opacity:1;" d="M 9.429688 4 L 8.855469 4 L 8.855469 2.855469 C 8.855469 1.257812 7.601562 0 6 0 C 4.398438 0 3.144531 1.257812 3.144531 2.855469 L 3.144531 4 L 2.570312 4 C 1.941406 4 1.429688 4.515625 1.429688 5.144531 L 1.429688 10.855469 C 1.429688 11.484375 1.941406 12 2.570312 12 L 9.429688 12 C 10.058594 12 10.570312 11.484375 10.570312 10.855469 L 10.570312 5.144531 C 10.570312 4.515625 10.058594 4 9.429688 4 Z M 6 9.144531 C 5.371094 9.144531 4.855469 8.628906 4.855469 8 C 4.855469 7.371094 5.371094 6.855469 6 6.855469 C 6.628906 6.855469 7.144531 7.371094 7.144531 8 C 7.144531 8.628906 6.628906 9.144531 6 9.144531 Z M 7.769531 4 L 4.230469 4 L 4.230469 2.855469 C 4.230469 1.886719 5.027344 1.085938 6 1.085938 C 6.972656 1.085938 7.769531 1.886719 7.769531 2.855469 Z M 7.769531 4 "/>
</g>
</svg>
