<svg xmlns="http://www.w3.org/2000/svg" width="100.619" height="70.905"><path fill="none" d="M0 0h34v26H0z"/><g class="currentLayer"><linearGradient id="a" gradientUnits="userSpaceOnUse" x1="43.43" y1="52.056" x2="127.193" y2="52.056" transform="matrix(.99389 0 0 1.0089 -41.425 -38.102)"><stop offset="0" stop-color="#75c16e"/><stop offset="1" stop-color="#516d57"/></linearGradient><path d="M81.383 25.817c.298-.606 7.752-15.941-5.069-17.253C63.195 7.253 44.112 26.22 44.112 26.22H1.972C14.195 15.93 26.321 9.573 37.253 5.941 45.9 3.116 53.851 1.906 60.61 1.805c9.044-.101 16.1 1.715 19.878 4.136 9.939 6.457 1.192 19.371.894 19.876z" fill="url(#a)"/><linearGradient id="b" gradientUnits="userSpaceOnUse" x1="44.138" y1="68.911" x2="90.864" y2="68.911" transform="matrix(.99389 0 0 1.0089 -41.425 -38.102)"><stop offset="0" stop-color="#75c16e"/><stop offset="1" stop-color="#516d57"/></linearGradient><path d="M49.181 25.615c-2.982 3.127-4.77 5.549-4.77 5.549L2.766 36.612c2.385-2.623 4.77-5.045 7.255-7.264h35.283l.894-.908c.696-.807 1.69-1.715 2.982-2.825z" fill="url(#b)"/><linearGradient id="c" gradientUnits="userSpaceOnUse" x1="46.145" y1="76.074" x2="90.979" y2="76.074" transform="matrix(.99389 0 0 1.0089 -41.425 -38.102)"><stop offset="0" stop-color="#75c16e"/><stop offset="1" stop-color="#516d57"/></linearGradient><path d="M46.696 32.98s.994-1.211 2.585-3.027c-2.485 3.43-3.877 5.952-3.877 5.952L4.654 46.701a143.909 143.909 0 0 1 6.262-8.172l34.985-4.54.795-1.01z" fill="url(#c)"/><linearGradient id="d" gradientUnits="userSpaceOnUse" x1="57.091" y1="94.606" x2="140.854" y2="94.606" transform="matrix(.99389 0 0 1.0089 -41.425 -38.102)"><stop offset="0" stop-color="#75c16e"/><stop offset="1" stop-color="#516d57"/></linearGradient><path d="M19.464 45.288c-.298.606-7.752 15.94 5.069 17.252 13.119 1.312 32.202-17.655 32.202-17.655h42.041c-12.225 10.29-24.35 16.646-35.283 20.278-8.647 2.825-16.598 4.036-23.356 4.137-9.045.1-16.101-1.715-19.878-4.137-9.939-6.456-1.093-19.37-.795-19.875z" fill="url(#d)"/><linearGradient id="e" gradientUnits="userSpaceOnUse" x1="93.42" y1="77.752" x2="140.145" y2="77.752" transform="matrix(.99389 0 0 1.0089 -41.425 -38.102)"><stop offset="0" stop-color="#75c16e"/><stop offset="1" stop-color="#516d57"/></linearGradient><path d="M51.666 45.49c2.982-3.128 4.77-5.549 4.77-5.549l41.644-5.448c-2.385 2.623-4.77 5.045-7.255 7.264H55.641l-.894.908c-.795.706-1.79 1.715-3.081 2.825z" fill="url(#e)"/><linearGradient id="f" gradientUnits="userSpaceOnUse" x1="93.305" y1="70.588" x2="138.139" y2="70.588" transform="matrix(.99389 0 0 1.0089 -41.425 -38.102)"><stop offset="0" stop-color="#75c16e"/><stop offset="1" stop-color="#516d57"/></linearGradient><path d="M54.15 38.125s-.993 1.21-2.584 3.027c2.485-3.43 3.877-5.953 3.877-5.953l40.65-10.795a143.909 143.909 0 0 1-6.262 8.172l-34.985 4.54-.695 1.01z" fill="url(#f)"/></g></svg>