<svg xmlns="http://www.w3.org/2000/svg" viewBox="0 0 466 211"><linearGradient id="a" gradientUnits="userSpaceOnUse" x1="233.537" y1="157.587" x2="233.537" y2="50.326"><stop offset="0" stop-color="#fcfcfc" stop-opacity="0"/><stop offset="1" stop-color="#b9c9d4"/></linearGradient><path d="M25.5 157.6l47.3-47.2c3.7-3.7 9.7-3.6 13.2.2l17.8 19c3.6 3.9 9.8 3.9 13.4 0l2.1-2.2c1.7-1.9 4.2-2.9 6.7-2.9h17.3c2.5 0 5-1.1 6.7-2.9l44-46.9c3.6-3.9 9.8-3.9 13.4 0L220.9 89l12.8 13.7c3.6 3.9 9.8 3.9 13.4 0l46.4-49.4c3.6-3.9 9.8-3.9 13.4 0l9.6 10.2c3.6 3.9 9.8 3.9 13.4 0 4-4.2 10.8-3.8 14.2.9l22 30.8c2.7 3.8 7.9 5 12 2.7l7.5-4.2c4.1-2.3 9.2-1.1 12 2.7l44.1 61.3" opacity=".5" fill="url(#a)"/></svg>